<svg width="62" height="16" viewBox="0 0 62 16" fill="none" xmlns="http://www.w3.org/2000/svg">
<path d="M15.1406 0.109375V4.41016H14.7188C14.4688 3.41797 14.1914 2.70703 13.8867 2.27734C13.582 1.83984 13.1641 1.49219 12.6328 1.23438C12.3359 1.09375 11.8164 1.02344 11.0742 1.02344H9.89062V13.2812C9.89062 14.0938 9.93359 14.6016 10.0195 14.8047C10.1133 15.0078 10.2891 15.1875 10.5469 15.3438C10.8125 15.4922 11.1719 15.5664 11.625 15.5664H12.1523V16H3.83203V15.5664H4.35938C4.82031 15.5664 5.19141 15.4844 5.47266 15.3203C5.67578 15.2109 5.83594 15.0234 5.95312 14.7578C6.03906 14.5703 6.08203 14.0781 6.08203 13.2812V1.02344H4.93359C3.86328 1.02344 3.08594 1.25 2.60156 1.70312C1.92188 2.33594 1.49219 3.23828 1.3125 4.41016H0.867188V0.109375H15.1406ZM31.1602 10.4219L30.5625 16H16.4531V15.5664H16.9805C17.4414 15.5664 17.8125 15.4844 18.0938 15.3203C18.2969 15.2109 18.4531 15.0234 18.5625 14.7578C18.6484 14.5703 18.6914 14.0781 18.6914 13.2812V2.82812C18.6914 2.01562 18.6484 1.50781 18.5625 1.30469C18.4766 1.10156 18.3008 0.925781 18.0352 0.777344C17.7773 0.621094 17.4258 0.542969 16.9805 0.542969H16.4531V0.109375H24.9258V0.542969H24.2344C23.7734 0.542969 23.4023 0.625 23.1211 0.789062C22.918 0.898438 22.7578 1.08594 22.6406 1.35156C22.5547 1.53906 22.5117 2.03125 22.5117 2.82812V12.9531C22.5117 13.7656 22.5586 14.2852 22.6523 14.5117C22.7461 14.7305 22.9297 14.8945 23.2031 15.0039C23.3984 15.0742 23.8711 15.1094 24.6211 15.1094H25.9453C26.7891 15.1094 27.4922 14.9609 28.0547 14.6641C28.6172 14.3672 29.1016 13.8984 29.5078 13.2578C29.9219 12.6172 30.3125 11.6719 30.6797 10.4219H31.1602ZM38.4961 8.80469V13.2109C38.4961 14.0703 38.5469 14.6133 38.6484 14.8398C38.7578 15.0586 38.9453 15.2344 39.2109 15.3672C39.4844 15.5 39.9805 15.5664 40.6992 15.5664V16H32.625V15.5664C33.3594 15.5664 33.8555 15.5 34.1133 15.3672C34.3789 15.2266 34.5625 15.0469 34.6641 14.8281C34.7734 14.6094 34.8281 14.0703 34.8281 13.2109V2.89844C34.8281 2.03906 34.7734 1.5 34.6641 1.28125C34.5625 1.05469 34.3789 0.875 34.1133 0.742188C33.8477 0.609375 33.3516 0.542969 32.625 0.542969V0.109375H39.5508C41.832 0.109375 43.4688 0.515625 44.4609 1.32812C45.4531 2.14062 45.9492 3.15625 45.9492 4.375C45.9492 5.40625 45.6289 6.28906 44.9883 7.02344C44.3477 7.75781 43.4648 8.25781 42.3398 8.52344C41.582 8.71094 40.3008 8.80469 38.4961 8.80469ZM38.4961 1.02344V7.89062C38.7539 7.90625 38.9492 7.91406 39.082 7.91406C40.0352 7.91406 40.7695 7.63281 41.2852 7.07031C41.8008 6.5 42.0586 5.62109 42.0586 4.43359C42.0586 3.25391 41.8008 2.39062 41.2852 1.84375C40.7695 1.29688 40 1.02344 38.9766 1.02344H38.4961ZM61.8398 10.4219L61.2422 16H47.1328V15.5664H47.6602C48.1211 15.5664 48.4922 15.4844 48.7734 15.3203C48.9766 15.2109 49.1328 15.0234 49.2422 14.7578C49.3281 14.5703 49.3711 14.0781 49.3711 13.2812V2.82812C49.3711 2.01562 49.3281 1.50781 49.2422 1.30469C49.1562 1.10156 48.9805 0.925781 48.7148 0.777344C48.457 0.621094 48.1055 0.542969 47.6602 0.542969H47.1328V0.109375H55.6055V0.542969H54.9141C54.4531 0.542969 54.082 0.625 53.8008 0.789062C53.5977 0.898438 53.4375 1.08594 53.3203 1.35156C53.2344 1.53906 53.1914 2.03125 53.1914 2.82812V12.9531C53.1914 13.7656 53.2383 14.2852 53.332 14.5117C53.4258 14.7305 53.6094 14.8945 53.8828 15.0039C54.0781 15.0742 54.5508 15.1094 55.3008 15.1094H56.625C57.4688 15.1094 58.1719 14.9609 58.7344 14.6641C59.2969 14.3672 59.7812 13.8984 60.1875 13.2578C60.6016 12.6172 60.9922 11.6719 61.3594 10.4219H61.8398Z" fill="black"/>
</svg>
